<svg width="240" height="64" viewBox="0 0 240 64" fill="none" xmlns="http://www.w3.org/2000/svg">
  <rect width="240" height="64" rx="14" fill="#112417"/>
  <rect x="8" y="8" width="48" height="48" rx="12" fill="#F0E8DC"/>
  <path d="M22 44V20H34.4C39.1 20 42 22.2 42 26.1C42 28.6 40.4 30.4 38.1 31C41.2 31.6 43 33.7 43 36.5C43 40.8 39.9 44 34.8 44H22ZM27.4 29.4H33.1C35.2 29.4 36.5 28.3 36.5 26.5C36.5 24.7 35.2 23.7 33.1 23.7H27.4V29.4ZM27.4 40.2H33.8C36.1 40.2 37.5 39 37.5 37C37.5 35 36.1 33.8 33.8 33.8H27.4V40.2Z" fill="#112417"/>
  <path d="M33 19L45 44" stroke="#112417" stroke-width="2.6" stroke-linecap="round"/>
  <text x="70" y="30" fill="#FAF8F5" font-family="Inter,Arial,sans-serif" font-size="14" font-weight="700">Bröderna</text>
  <text x="70" y="48" fill="#E4EDF2" font-family="Inter,Arial,sans-serif" font-size="14" font-weight="600">Strandevall</text>
</svg>
